
<svg width="4.88" height="8.63" viewBox="0 0 5 9" fill="none" xmlns="http://www.w3.org/2000/svg">
<path d="M4.71191 4.71191L0.961913 8.46191C0.856241 8.56759 0.712919 8.62695 0.563476 8.62695C0.414033 8.62695 0.27071 8.56759 0.165038 8.46191C0.0593659 8.35624 1.11344e-09 8.21292 0 8.06348C-1.11344e-09 7.91403 0.0593659 7.77071 0.165038 7.66504L3.51707 4.31394L0.165976 0.961913C0.113652 0.90959 0.0721467 0.847473 0.0438294 0.779109C0.0155121 0.710745 0.000937343 0.637472 0.000937343 0.563476C0.000937342 0.489479 0.0155121 0.416207 0.0438294 0.347843C0.0721467 0.279479 0.113652 0.217362 0.165976 0.165038C0.218299 0.112715 0.280416 0.0712094 0.34878 0.0428921C0.417145 0.0145748 0.490417 -5.51318e-10 0.564413 0C0.63841 5.51319e-10 0.711682 0.0145748 0.780046 0.0428921C0.84841 0.0712094 0.910527 0.112715 0.962851 0.165038L4.71285 3.91504C4.76523 3.96736 4.80676 4.0295 4.83507 4.09791C4.86338 4.16632 4.87791 4.23964 4.87783 4.31367C4.87774 4.3877 4.86304 4.46099 4.83457 4.52933C4.8061 4.59767 4.76441 4.65972 4.71191 4.71191Z" fill="#4D545C"/>
</svg>
