
<svg width="30" height="20" viewBox="0 0 30 20" fill="none" xmlns="http://www.w3.org/2000/svg">
<g clip-path="url(#clip0_490_15077)">
<path fill-rule="evenodd" clip-rule="evenodd" d="M14.727 5.0002C14.9112 5.0002 15.1404 5.092 15.4164 5.3674L20.7936 10.744C21.666 11.6176 21.1608 12.304 20.0136 12.2146H14.727L17.898 15.4774H24.6534C26.7216 15.5692 28.3734 13.639 26.3082 11.6632L16.8882 2.2876C16.1028 1.5058 15.4164 1 14.727 1C14.0376 1 13.347 1.5058 12.567 2.2876L3.14704 11.6626C1.07944 13.6384 2.73304 15.5686 4.80124 15.4762H11.556L14.727 12.214H9.44224C8.29324 12.3058 7.78744 11.614 8.66224 10.7434L14.0388 5.3674C14.3142 5.092 14.5446 5.0002 14.7282 5.0002" fill="#2A58A3"/>
<path fill-rule="evenodd" clip-rule="evenodd" d="M14.6946 8.13525C15.081 8.13502 15.4588 8.24936 15.7802 8.46383C16.1016 8.6783 16.3521 8.98325 16.5002 9.34013C16.6483 9.69702 16.6872 10.0898 16.6121 10.4688C16.5369 10.8478 16.3511 11.196 16.078 11.4694C15.805 11.7428 15.457 11.9291 15.0781 12.0047C14.6992 12.0803 14.3063 12.0418 13.9493 11.8942C13.5922 11.7466 13.287 11.4963 13.0721 11.1752C12.8572 10.8541 12.7424 10.4764 12.7422 10.0901C12.7423 9.57224 12.9481 9.07567 13.3142 8.70946C13.6803 8.34326 14.1768 8.13737 14.6946 8.13705" fill="#E6363B"/>
<path fill-rule="evenodd" clip-rule="evenodd" d="M14.7061 19.0001H24.5863C26.1949 18.9539 26.6089 18.5405 27.9415 15.9209C26.1031 17.6669 25.6897 17.7587 24.5863 17.7587H4.8259C3.7231 17.7587 3.3091 17.6669 1.4707 15.9209C2.8033 18.5405 3.2173 18.9539 4.8259 19.0001H14.7061Z" fill="#2A58A3"/>
<path d="M23.2631 17.0588H23.563V17.2652H23.2631V17.0588ZM23.2631 16.4636H23.563V16.6706H23.2631V16.4636ZM21.3808 16.8944C21.3808 16.5602 21.895 16.5824 21.895 16.5824L21.955 16.7294C21.9034 16.7168 21.64 16.712 21.6292 16.8932C21.631 16.9394 21.6508 16.9831 21.6845 17.0148C21.7182 17.0465 21.763 17.0636 21.8092 17.0624H21.82C21.8652 17.065 21.9103 17.0571 21.952 17.0394C21.9936 17.0218 22.0306 16.9947 22.06 16.9604V16.4636H21.226V16.3166H23.071V16.4636H22.3114V16.6844C22.3865 16.6281 22.4788 16.5997 22.5724 16.604C22.7878 16.604 22.969 16.7378 22.969 16.898C22.969 17.1068 22.6744 17.297 22.6744 17.297L22.4848 17.1962C22.4908 17.1962 22.7176 17.0576 22.7176 16.9016C22.7171 16.881 22.7125 16.8607 22.7041 16.8418C22.6957 16.8229 22.6836 16.8059 22.6687 16.7917C22.6537 16.7775 22.636 16.7664 22.6167 16.759C22.5974 16.7516 22.5769 16.7481 22.5562 16.7486H22.5472C22.5015 16.7535 22.4573 16.7677 22.4173 16.7903C22.3772 16.8129 22.3422 16.8434 22.3145 16.88V17.4146H22.0595V17.1572C21.7774 17.2904 21.3808 17.1698 21.3808 16.8962V16.8944ZM21.1906 15.854V15.9638C21.1458 15.9493 21.0985 15.9436 21.0514 15.947C20.791 15.947 20.8186 16.2716 21.0232 16.3148H20.8588C20.8072 16.2926 20.6686 16.172 20.6746 16.0622C20.68 15.8684 20.9746 15.7586 21.1906 15.8558V15.854ZM20.5588 16.3172H21.1852V16.4648H21.0382V17.411H20.7766V16.463H20.5612V16.316L20.5588 16.3172ZM20.074 16.664C20.1089 16.6675 20.144 16.6625 20.1765 16.6497C20.2091 16.6369 20.2381 16.6165 20.2613 16.5902C20.2787 16.4486 19.9072 16.3922 19.9072 16.5602C19.9102 16.6226 19.9894 16.664 20.074 16.664ZM19.459 16.319H20.5558V16.466H20.4226C20.6554 16.7006 20.4395 17.0498 20.0548 17.072C20.0656 17.072 20.1484 17.132 20.2108 17.1692C20.3212 17.2292 20.4202 17.285 20.4256 17.2892L20.2786 17.4242C20.0242 17.327 19.8076 17.1416 19.6102 16.991L19.774 16.871L19.87 16.931C19.9045 16.9471 19.9433 16.9515 19.9804 16.9436C20.2072 16.907 20.2444 16.8062 20.2499 16.7582C19.9865 16.8944 19.57 16.6982 19.726 16.4642H19.465L19.459 16.319ZM18.0304 16.319H19.4644V16.466H19.1926V16.766H18.5896C18.5547 16.762 18.5196 16.772 18.492 16.7938C18.4645 16.8156 18.4467 16.8475 18.4426 16.8824V16.8884C18.4426 17.087 18.8134 17.1578 18.8872 17.1194C18.8864 17.0953 18.8905 17.0712 18.8992 17.0487C18.9079 17.0262 18.921 17.0056 18.9378 16.9883C18.9546 16.9709 18.9747 16.9571 18.997 16.9477C19.0192 16.9383 19.0431 16.9334 19.0672 16.9334H19.0889C19.2814 16.9334 19.3151 17.1614 19.1452 17.207C19.1656 17.2463 19.1904 17.2831 19.219 17.3168C19.2586 17.3708 19.33 17.4488 19.33 17.4488H19.0631C19.0631 17.4488 19.0204 17.3888 18.9976 17.351C18.9748 17.3132 18.9694 17.2952 18.9526 17.2676C18.9412 17.2718 18.1852 17.2952 18.19 16.871C18.19 16.7348 18.355 16.6232 18.5446 16.6232H18.931V16.4636H18.031V16.3166L18.0304 16.319ZM17.5895 16.9676V17.0948L16.9606 17.4092L16.8137 17.267L17.5895 16.9676ZM17.3326 17.1008C16.9954 17.0966 16.8874 16.8662 16.8874 16.8008V16.4648H16.6996V16.3178H18.001V16.4648H17.854V17.411H17.599V17.051C17.5183 17.0923 17.4279 17.111 17.3375 17.105L17.3326 17.1008ZM17.596 16.463H17.1472V16.808C17.1472 16.8872 17.2036 16.9628 17.3476 16.9676C17.3951 16.9679 17.4421 16.9582 17.4857 16.9392C17.5292 16.9202 17.5682 16.8923 17.6003 16.8572L17.596 16.463ZM16.0691 16.316H16.6948V16.463H16.5473V17.4092H16.2863V16.463H16.0721V16.316H16.0691ZM15.5387 16.5998V16.727C15.4787 16.7318 15.19 16.706 15.19 16.5116C15.19 16.3808 15.3598 16.2914 15.55 16.2962C15.7966 16.2962 16.0042 16.4498 16.0042 16.631C16.0042 16.8122 15.7642 16.976 15.5332 16.967C15.5332 16.967 15.6071 17.081 15.8195 17.0762C15.913 17.0723 16.0048 17.0497 16.0895 17.0099C16.1742 16.97 16.25 16.9136 16.3127 16.844V17.084C15.9131 17.3402 15.2675 17.2136 15.1571 16.8062C15.2357 16.8249 15.3162 16.8342 15.397 16.8338C15.5615 16.8338 15.751 16.7738 15.751 16.6136C15.7524 16.5677 15.7355 16.523 15.7042 16.4894C15.6729 16.4557 15.6296 16.4357 15.5837 16.4336C15.5733 16.4328 15.5628 16.4328 15.5525 16.4336C15.3904 16.4396 15.3845 16.6028 15.5459 16.6028L15.5387 16.5998ZM14.4755 17.1002C14.1389 17.0966 14.0345 16.8656 14.0345 16.8002V16.4672H13.8473V16.3202H15.1474V16.4672H15.0005V17.4134H14.7455V17.0534C14.6634 17.0954 14.5715 17.1141 14.4796 17.1074L14.4755 17.1002ZM14.7395 16.4624H14.2859V16.8074C14.2859 16.8866 14.3422 16.9622 14.4875 16.967C14.5348 16.9672 14.5817 16.9575 14.6251 16.9385C14.6685 16.9195 14.7075 16.8916 14.7395 16.8566V16.4624ZM12.2525 17.0624H12.5525V17.2688H12.2525V17.0624ZM12.2525 16.4672H12.5525V16.6742H12.2525V16.4672ZM10.3679 16.8998C10.3679 16.565 10.8827 16.5872 10.8827 16.5872L10.9427 16.7342C10.8911 16.7216 10.6277 16.7174 10.6163 16.898C10.6177 16.9212 10.6237 16.9438 10.6339 16.9646C10.6441 16.9854 10.6583 17.004 10.6757 17.0193C10.693 17.0346 10.7133 17.0464 10.7352 17.0539C10.7571 17.0614 10.7803 17.0645 10.8035 17.063H10.8119C10.857 17.066 10.9022 17.0584 10.9439 17.0408C10.9856 17.0232 11.0225 16.9961 11.0518 16.9616V16.4672H10.2155V16.3202H12.0593V16.4672H11.3003V16.688C11.3751 16.6318 11.4671 16.6034 11.5607 16.6076C11.7761 16.6076 11.9579 16.7414 11.9579 16.9016C11.9579 17.1104 11.6579 17.3006 11.6579 17.3006L11.4689 17.1938C11.4743 17.1938 11.7011 17.0552 11.7011 16.8998C11.7 16.8581 11.6823 16.8185 11.6521 16.7897C11.6218 16.7609 11.5814 16.7453 11.5397 16.7462H11.5313C11.4856 16.7512 11.4415 16.7654 11.4016 16.788C11.3617 16.8106 11.3268 16.8411 11.2991 16.8776V17.4122H11.0434V17.1548C10.771 17.2904 10.3679 17.1698 10.3679 16.8962V16.8998ZM8.78445 16.3226H10.2125V16.4696H10.0655V17.4158H9.80385V16.8548H9.35025V17.0018C9.35127 17.0103 9.35048 17.0189 9.34793 17.027C9.34537 17.0352 9.34112 17.0426 9.33544 17.049C9.32976 17.0554 9.3228 17.0604 9.31501 17.0639C9.30721 17.0673 9.29877 17.0691 9.29025 17.069C9.28507 17.0696 9.27983 17.0696 9.27465 17.069C9.18645 17.0648 8.93145 16.829 8.93145 16.778C8.93145 16.7048 9.02505 16.7048 9.03645 16.7048H9.79905V16.4648H8.78505L8.78445 16.3226ZM8.15205 16.3226H8.77845V16.4696H8.63145V17.4158H8.37105V16.463H8.15505L8.15205 16.3226ZM7.74705 16.4696H7.31865V16.793H7.74945L7.74705 16.4696ZM6.72705 16.3226H8.15505V16.4696H8.01105V17.4158H7.74705V16.9358H7.31865V17.063C7.31873 17.0727 7.31691 17.0822 7.31331 17.0911C7.3097 17.1 7.30438 17.1081 7.29764 17.115C7.29089 17.1218 7.28287 17.1273 7.27402 17.131C7.26517 17.1348 7.25566 17.1368 7.24605 17.1368H7.23645C7.16325 17.1368 6.86865 16.8968 6.86865 16.85C6.86865 16.8032 6.96225 16.796 6.96825 16.796H7.06725V16.4678H6.72705V16.3226Z" fill="#E6363B"/>
</g>
<defs>
<clipPath id="clip0_490_15077">
<rect width="26.4708" height="18" fill="white" transform="translate(1.4707 1)"/>
</clipPath>
</defs>
</svg>
