
<svg width="16" height="16" viewBox="0 0 16 16" fill="none" xmlns="http://www.w3.org/2000/svg">
<path d="M7.4694 11.5306L2.4694 6.5306C2.32851 6.3897 2.24935 6.19861 2.24935 5.99935C2.24935 5.80009 2.32851 5.60899 2.4694 5.4681C2.6103 5.3272 2.80139 5.24805 3.00065 5.24805C3.19991 5.24805 3.39101 5.3272 3.5319 5.4681L8.00003 9.93747L12.4694 5.46935C12.5392 5.39958 12.622 5.34424 12.7131 5.30649C12.8043 5.26873 12.902 5.2493 13.0007 5.2493C13.0993 5.2493 13.197 5.26873 13.2882 5.30649C13.3793 5.34424 13.4621 5.39958 13.5319 5.46935C13.6017 5.53911 13.657 5.62194 13.6948 5.71309C13.7325 5.80424 13.752 5.90194 13.752 6.0006C13.752 6.09926 13.7325 6.19696 13.6948 6.28811C13.657 6.37926 13.6017 6.46208 13.5319 6.53185L8.5319 11.5318C8.46214 11.6017 8.37928 11.6571 8.28807 11.6948C8.19687 11.7326 8.0991 11.7519 8.00039 11.7518C7.90168 11.7517 7.80397 11.7321 7.71285 11.6941C7.62173 11.6562 7.539 11.6006 7.4694 11.5306Z" fill="#262A2E"/>
</svg>
